<svg width="20" height="21" viewBox="0 0 20 21" fill="none" xmlns="http://www.w3.org/2000/svg">
<path d="M19.5549 14.4033L18.2366 12.21C17.9449 11.7317 17.6883 10.81 17.6883 10.25V8.06834C17.6883 3.83334 14.2466 0.39167 10.0233 0.39167C5.78829 0.403337 2.34662 3.83334 2.34662 8.06834V10.2383C2.34662 10.7983 2.08995 11.72 1.80995 12.1983L0.491618 14.3917C-0.0100483 15.2433 -0.126715 16.2117 0.188285 17.0517C0.503285 17.9033 1.21495 18.58 2.14828 18.8833C3.40828 19.3033 4.67995 19.6067 5.97495 19.8283C6.10328 19.8517 6.23162 19.8633 6.35995 19.8867C6.52328 19.91 6.69828 19.9333 6.87328 19.9567C7.17662 20.0033 7.47995 20.0383 7.79495 20.0617C8.52995 20.1317 9.27662 20.1667 10.0233 20.1667C10.7583 20.1667 11.4933 20.1317 12.2166 20.0617C12.485 20.0383 12.7533 20.015 13.01 19.98C13.22 19.9567 13.43 19.9333 13.64 19.8983C13.7683 19.8867 13.8966 19.8633 14.025 19.84C15.3316 19.63 16.6266 19.3033 17.8866 18.8833C18.7849 18.58 19.4733 17.9033 19.7999 17.04C20.1266 16.165 20.0333 15.2083 19.5549 14.4033ZM10.875 9.66667C10.875 10.1567 10.4783 10.5533 9.98828 10.5533C9.49828 10.5533 9.10162 10.1567 9.10162 9.66667V6.05C9.10162 5.56 9.49828 5.16334 9.98828 5.16334C10.4783 5.16334 10.875 5.56 10.875 6.05V9.66667Z" fill="#2EDB95"/>
</svg>
